<svg width="107" height="100" viewBox="0 0 107 100" fill="none" xmlns="http://www.w3.org/2000/svg">
<path d="M99.7176 18C99.7176 16.814 99.2134 15.6765 98.3161 14.8378C97.4187 13.9992 96.2016 13.528 94.9325 13.528C94.6886 13.528 94.4543 13.562 94.2189 13.595V13.5H12.0375V13.528C10.7684 13.528 9.55134 13.9992 8.65397 14.8378C7.7566 15.6765 7.25246 16.814 7.25246 18V82.5H7.30596C7.5756 84.731 9.57757 86.472 12.0364 86.472V86.5H94.2178V86.405C94.4521 86.438 94.6864 86.472 94.9315 86.472C97.3914 86.472 99.3934 84.732 99.663 82.5H99.7465V18H99.7176ZM89.0936 76.543H77.4723C77.4332 76.3893 77.3735 76.2408 77.2947 76.101L77.3139 76.091L53.0046 36.741L52.995 36.746C52.7268 36.2255 52.3072 35.7862 51.784 35.4784C51.2609 35.1706 50.6556 35.0069 50.0375 35.006C49.4023 35.0068 48.7809 35.179 48.2481 35.5021C47.7152 35.8252 47.2936 36.2853 47.034 36.827L30.8567 63.013L26.8955 56.602L26.8902 56.605C26.7489 56.3305 26.5278 56.0987 26.252 55.9364C25.9763 55.774 25.6571 55.6876 25.3312 55.687C24.6261 55.687 24.0215 56.082 23.7487 56.645L17.9065 66.102V23.485H89.0936V76.543Z" fill="#3F4D5A"/>
<path d="M72.8905 48.6839C78.8591 48.6839 83.6975 44.162 83.6975 38.5839C83.6975 33.0058 78.8591 28.4839 72.8905 28.4839C66.922 28.4839 62.0835 33.0058 62.0835 38.5839C62.0835 44.162 66.922 48.6839 72.8905 48.6839Z" fill="#3F4D5A"/>
</svg>
