<svg width="100" height="100" viewBox="0 0 100 100" fill="none" xmlns="http://www.w3.org/2000/svg">
<path d="M61.9812 74.3563C64.4078 71.9672 63.0984 66.4797 59.1344 60.1406C60.575 59.9156 61.9219 59.5719 62.9406 59.0453C66.6063 57.1531 69.0812 53.7047 70.9547 50.1375C72.9688 46.3109 74.3203 42.1047 76.9484 38.6203C77.3922 38.0312 77.8359 37.5031 78.2781 37.0062C83.9484 37.6859 88.475 38.9047 88.475 38.9047L90.2047 34.5094C88.0215 33.7259 85.783 33.1059 83.5078 32.6547C84.9016 31.8625 85.8109 31.6156 85.8109 31.6156L84.1719 27.1844C81.5437 28.2953 79.4109 29.9344 77.625 31.8969C70.95 31.5234 64.2281 32.8531 58.925 36.9656C54.9375 40.0594 52.2437 44.3484 49.7094 48.6391C47.4638 46.4354 45.0725 44.3855 42.5516 42.5031C43.0297 41.7172 43.5422 41.0109 44.0938 40.4656C47.4266 37.1844 51.8234 35.0859 54.7078 31.3312C60.7703 23.4469 56.3359 11.0875 51.3484 4.6875C50.4547 5.54844 48.9766 6.80312 47.8641 7.79375C53.1656 13.2234 56.8734 22.7297 52.7188 29.8328C50.3969 33.8031 46.1063 36.2937 43.1063 39.7047C42.5875 40.2969 42.1234 41.0469 41.7031 41.875C33.8578 36.2484 26.6578 33.9844 23.8047 36.7938C23.5214 37.0836 23.288 37.4183 23.1141 37.7844L23.1031 37.7734L23.0266 37.9969C22.9203 38.2391 22.8234 38.4906 22.7578 38.7656L3.125 95.3125L60.4094 75.2844L60.3937 75.2688C61.0094 75.0703 61.5516 74.7781 61.9812 74.3563ZM14.5203 88.0188L9.73906 85.7906L12.9656 76.4938L27.7641 83.3875L14.5203 88.0188ZM41.0062 78.7578L16.1953 67.1969L19.4219 57.9016L37.9625 67.2078C26.8953 60.0047 22.6484 48.6031 22.6484 48.6031L23.7516 45.4266C25.7125 50.3875 30.0266 56.5656 35.9547 62.3969C41.9328 68.2812 48.2687 72.5437 53.3328 74.4484L41.0062 78.7578ZM50.5359 49.4766C53.1266 45.7625 55.7969 42.0141 59.5094 39.3469C63.0437 36.8062 68.7812 36.3422 74.2203 36.6469C72.3828 39.8563 71.025 43.4172 69.8063 46.8375C68.3328 50.9781 66.3578 55.2719 62.5922 57.8109C61.5766 58.4953 60.1531 58.9953 58.6328 59.3656C56.5438 56.1641 53.8031 52.7797 50.5359 49.4766Z" fill="#3F4D5A"/>
<path d="M35.989 34.375C37.5546 34.375 32.8609 29.6875 33.6452 25.5766C36.6515 25.3454 43.5234 26.7 39.5234 21.2063C44.0484 22.0032 46.3921 18.625 42.1202 15.4235C43.5421 15.5235 45.7515 12.8422 44.1656 12.5032C39.0843 11.4266 37.0952 14.175 40.3202 18.1391C36.9296 17.5079 34.1656 19.0844 36.7124 22.625C26.9218 21.4047 32.4921 34.375 35.989 34.375Z" fill="#3F4D5A"/>
<path d="M69.6015 30.2091C71.0687 29.5466 68.5797 25.1701 67.7703 24.0513C73.9625 23.3888 73.7281 21.5435 69.8453 17.5904C80.4015 17.9451 70.1718 11.9451 71.6062 9.57007C72.8484 7.51069 76.6593 9.67007 76.3062 8.52319C75.1156 4.68725 63.8218 7.281 70.9687 14.4435C64.7312 14.5654 64.1328 16.6044 68.7812 20.831C60.6843 20.9201 67.2906 31.2498 69.6015 30.2091Z" fill="#3F4D5A"/>
<path d="M96.4017 45.664C93.9298 46.3562 93.5485 46.0968 93.8782 48.5577C88.1689 45.9296 82.1282 42.2749 85.7939 51.9577C79.3095 48.0968 79.6329 51.478 78.4204 57.0421C76.8423 55.8124 74.6001 52.5718 74.6001 52.5718L72.2251 54.589C72.2251 54.589 76.5767 60.7265 78.7251 60.378C80.6142 60.0733 81.6423 56.503 81.747 53.3562C87.7626 55.8952 90.6423 56.2343 87.8907 48.8093C92.7001 51.5108 98.597 53.8937 96.4017 45.664Z" fill="#3F4D5A"/>
<path d="M9.45156 17.8701L13.8703 22.2904L9.45156 26.7092L5.03125 22.2904L9.45156 17.8701Z" fill="#3F4D5A"/>
<path d="M20.0375 36.2467L15.6156 40.6654L11.1953 36.2436L15.6172 31.8232L20.0375 36.2467Z" fill="#3F4D5A"/>
<path d="M26.9063 10.9375L31.3251 15.3563L26.9048 19.7781L22.486 15.3563L26.9063 10.9375Z" fill="#3F4D5A"/>
<path d="M75.0172 72.6312L70.5953 68.2109L75.014 63.7891L79.4359 68.2094L75.0172 72.6312Z" fill="#3F4D5A"/>
<path d="M65.1641 87.7907L60.7453 83.372L65.1641 78.9517L69.5844 83.372L65.1641 87.7907Z" fill="#3F4D5A"/>
<path d="M84.5515 91.2812L80.1296 86.8608L84.5468 82.439L88.9687 86.8593L84.5515 91.2812Z" fill="#3F4D5A"/>
<path d="M88.9703 71.1501L84.5516 66.7298L88.9703 62.311L93.3891 66.7298L88.9703 71.1501Z" fill="#3F4D5A"/>
<path d="M81.5938 15.625L86.0126 20.0438L81.5923 24.4641L77.1735 20.0438L81.5938 15.625Z" fill="#3F4D5A"/>
</svg>
