<svg width="100" height="100" viewBox="0 0 100 100" fill="none" xmlns="http://www.w3.org/2000/svg">
<path d="M50 8.3335C27.025 8.3335 8.33334 27.0252 8.33334 50.0002C8.33334 60.5043 12.2708 70.0835 18.7083 77.4252C23.875 83.7585 32.3167 90.2002 45.5375 91.4168C48.5021 91.745 51.4938 91.745 54.4583 91.4168C67.6833 90.2002 76.1208 83.7543 81.2875 77.4252C87.9733 69.8535 91.6641 60.1011 91.6667 50.0002C91.6667 27.0252 72.975 8.3335 50 8.3335ZM19.6208 36.3502C20.2625 36.7252 20.9042 37.1085 21.5208 37.5002C23.1708 38.5418 24.8167 39.5835 26.8792 40.3668C28.9375 41.146 31.4125 41.6668 34.7083 41.6668C38.0083 41.6668 40.4833 41.146 42.5458 40.3627C44.6083 39.5793 46.2583 38.5418 47.9083 37.5002C49.5583 36.4585 51.2083 35.4168 53.2708 34.6335C55.3292 33.8543 57.8042 33.3335 61.1042 33.3335C64.4042 33.3335 66.8792 33.8543 68.9375 34.6377C71 35.4168 72.65 36.4585 74.3 37.5002C75.95 38.5418 77.6 39.5835 79.6625 40.3668C80.4042 40.646 81.2209 40.8752 82.0834 41.0793C82.8792 43.921 83.3334 46.9043 83.3334 50.0002C83.3334 53.5127 82.7792 56.8918 81.7709 60.071C80.6833 60.8835 78.7167 62.046 75.2 63.221C71.9958 64.2877 68.2333 65.1293 64.0125 65.7293C54.711 66.9751 45.2849 66.9751 35.9833 65.7293C31.7625 65.1293 28 64.2877 24.7958 63.221C21.2792 62.046 19.3125 60.8835 18.225 60.071C15.7419 52.2634 16.2392 43.8127 19.6208 36.3502Z" fill="#3F4D5A"/>
<path d="M35.4167 58.3335C38.8684 58.3335 41.6667 55.5353 41.6667 52.0835C41.6667 48.6317 38.8684 45.8335 35.4167 45.8335C31.9649 45.8335 29.1667 48.6317 29.1667 52.0835C29.1667 55.5353 31.9649 58.3335 35.4167 58.3335Z" fill="#3F4D5A"/>
<path d="M64.5833 58.3335C68.0351 58.3335 70.8333 55.5353 70.8333 52.0835C70.8333 48.6317 68.0351 45.8335 64.5833 45.8335C61.1315 45.8335 58.3333 48.6317 58.3333 52.0835C58.3333 55.5353 61.1315 58.3335 64.5833 58.3335Z" fill="#3F4D5A"/>
</svg>
